<?xml version="1.0" encoding="utf-8"?>
<!-- Generator: Adobe Illustrator 22.1.0, SVG Export Plug-In . SVG Version: 6.00 Build 0)  -->
<svg version="1.1" id="Capa_1" xmlns="http://www.w3.org/2000/svg" xmlns:xlink="http://www.w3.org/1999/xlink" x="0px" y="0px"
	 viewBox="0 0 179 40" style="enable-background:new 0 0 179 40;" xml:space="preserve">
<style type="text/css">
	.st0{fill:#FFFFFF;}
	.st1{fill:#7CAD64;}
	.st2{fill:#EAC140;}
</style>
<title>Group 7</title>
<desc>Created with Sketch.</desc>
<g>
	<path class="st0" d="M151.3,23.4v15.1h-6.1V0.6h6.1v19.6"/>
	<path class="st0" d="M151.3,20.2l13.1-15.4h6.9l-14.7,16.9l14.9,16.8h-7.2l-13.1-15.1"/>
	<g>
		<path class="st0" d="M129.3,39.1c-7.4,0-12.9-5.3-12.9-13.4c0-8.1,5.8-13.3,13.2-13.3c7.4,0,13.2,5.2,13.2,13.3
			C142.7,33.9,136.7,39.1,129.3,39.1z M129.3,34.5c4,0,7.9-2.9,7.9-8.7c0-5.9-3.8-8.7-7.8-8.7c-4,0-7.6,2.8-7.6,8.7
			C121.8,31.6,125.3,34.5,129.3,34.5z"/>
	</g>
	<path class="st1" d="M147.9,37.3L147.9,37.3L147.9,37.3C148,37.2,148,37.3,147.9,37.3z"/>
	<path class="st0" d="M13.1,38.7c-7,0-12.5-3.9-12.5-10.1h6.2c0.3,2.9,2.3,5.2,6.3,5.2c4.1,0,6.3-2.2,6.3-5.2c0-8.5-18.7-3-18.7-16
		c0-6.2,4.9-10,12.1-10c6.7,0,11.5,3.6,12,9.6h-6.4c-0.2-2.4-2.3-4.6-5.9-4.7c-3.3-0.1-5.9,1.5-5.9,4.9c0,8,18.7,3,18.7,15.9
		C25.3,33.7,21,38.7,13.1,38.7z"/>
	<path class="st0" d="M45.1,38.1c-7.7,2.3-15-1.4-17.6-9.8C25,20,28.8,13,36.7,10.5c7.6-2.3,14.6,1.3,17,9.2
		c0.3,0.9,0.5,1.8,0.6,2.8l-20.4,6.2c1.7,4.3,5.7,6,9.8,4.8c3.4-1,4.8-3.3,5.2-5.7l6-1.8C54.7,31.1,51.7,36.1,45.1,38.1z M32.6,24.3
		l14.8-4.5C46,15.6,42,14,37.9,15.3C34.1,16.4,31.9,19.9,32.6,24.3z"/>
	<path class="st0" d="M76.8,22.7c0-5.1-2.8-7.8-7-7.8c-4.3,0-7.1,2.6-7.1,7.8v15.6h-5.8V10.4h5.8v3.2c1.9-2.3,5-3.7,8.3-3.7
		c6.5,0,11.5,4.1,11.5,11.9v16.5h-5.7V22.7z"/>
	<path class="st0" d="M97.9,10c3.7,0,7.5,1.7,9.6,4.4V0.8h5.8v37.5h-5.8v-4.2c-1.8,2.5-5.1,4.7-9.7,4.7c-7.4,0-13.2-5.9-13.2-14.6
		S90.5,10,97.9,10z M99.1,15c-4.3,0-8.5,3.2-8.5,9.3s4.2,9.5,8.5,9.5c4.4,0,8.5-3.4,8.5-9.4C107.5,18.4,103.4,15,99.1,15z"/>
	<rect x="118.9" y="4.2" class="st2" width="21.4" height="5.4"/>
</g>
</svg>
